# xmcd
#
# Track frame offsets: 
#        150
#        19558
#        49986
#        77293
#        97190
#        115901
#        132290
#        149501
#        168215
#        185455
#        201633
#
# Disc length: 3002 seconds
#
# Revision: 3
# Processed by: cddbd v1.5.2PL0 Copyright (c) Steve Scherf et al.
# Submitted via: ExactAudioCopyFreeDBPlugin 1.0
#
DISCID=980bb80b
DTITLE=Poets Of The Fall - Revolution Roulette
DYEAR=2008
DGENRE=Rock
TTITLE0=More
TTITLE1=The Ultimate Fling
TTITLE2=Revolution Roulette
TTITLE3=Psychosis
TTITLE4=Fragile
TTITLE5=Clevermind
TTITLE6=Miss Impossible
TTITLE7=Diamonds For Tears
TTITLE8=Passion Colors Everything
TTITLE9=Save Me
TTITLE10=Where Do We Draw The Line
EXTD=
EXTT0=
EXTT1=
EXTT2=
EXTT3=
EXTT4=
EXTT5=
EXTT6=
EXTT7=
EXTT8=
EXTT9=
EXTT10=
PLAYORDER=
